<?xml version="1.0" encoding="iso-8859-1"?>
<!-- Generator: Adobe Illustrator 19.0.0, SVG Export Plug-In . SVG Version: 6.00 Build 0)  -->
<svg version="1.1" id="Capa_1" xmlns="http://www.w3.org/2000/svg" xmlns:xlink="http://www.w3.org/1999/xlink" x="0px" y="0px"
	 viewBox="0 0 508.2 508.2" style="enable-background:new 0 0 508.2 508.2;" xml:space="preserve">
<g>
	<g>
		<path d="M394.8,204.392h-43.3l-74-79.2c-5.3-5.7-14.2-6-19.9-0.7c-5.7,5.3-6,14.2-0.7,19.9l56,59.9H139.1v-17.1
			c0-7.8-6.3-14.1-14.1-14.1s-14.1,6.3-14.1,14.1v17.1H50.6c-27.9,0.1-50.6,22.7-50.6,50.6v78c0,7.8,6.3,14.1,14.1,14.1h28
			c6.2,23.3,27.5,40.5,52.7,40.5s46.4-17.2,52.7-40.5h213.2c6.2,23.3,27.5,40.5,52.7,40.5s46.4-17.2,52.7-40.5h28
			c7.8,0,14.1-6.3,14.1-14.1v-48.7C508,235.492,433.7,204.392,394.8,204.392z M94.8,359.292c-14.5,0-26.4-11.8-26.4-26.4
			c0-14.5,11.8-26.4,26.4-26.4c14.6,0,26.4,11.8,26.4,26.4C121.1,347.492,109.3,359.292,94.8,359.292z M413.3,359.292
			c-14.5,0-26.4-11.8-26.4-26.4c0-14.5,11.8-26.4,26.4-26.4c14.5,0,26.4,11.8,26.4,26.4C439.6,347.492,427.8,359.292,413.3,359.292z
			 M465.9,318.792c-6.2-23.3-27.5-40.5-52.7-40.5s-46.4,17.2-52.7,40.5H147.4c-6.2-23.3-27.5-40.5-52.7-40.5s-46.4,17.2-52.7,40.5
			H28.2v-63.9c0-12.3,10-22.3,22.3-22.3h344.2c33.6,0,85,27.7,85,51.6v34.6H465.9z"/>
	</g>
</g>
<g>
</g>
<g>
</g>
<g>
</g>
<g>
</g>
<g>
</g>
<g>
</g>
<g>
</g>
<g>
</g>
<g>
</g>
<g>
</g>
<g>
</g>
<g>
</g>
<g>
</g>
<g>
</g>
<g>
</g>
</svg>
